<?xml version="1.0" ?><svg id="Layer_1" style="enable-background:new 0 0 512 512;" version="1.1" viewBox="0 0 512 512" xml:space="preserve" xmlns="http://www.w3.org/2000/svg" xmlns:xlink="http://www.w3.org/1999/xlink"><style type="text/css">
	.st0{opacity:0.5;fill:#CB4E22;}
	.st1{fill:#20201E;}
</style><path class="st0" d="M277.8,111.3L277.8,111.3c68.6,0,124.2,55.6,124.2,124.2v204H153.6v-204C153.6,166.9,209.2,111.3,277.8,111.3z"/><g><path class="st1" d="M424.8,419.4H387v-194c0-71.2-58-129.2-129.2-129.2s-129.2,58-129.2,129.2v194h-5.3L114,360   c-0.4-2.7-3-4.6-5.7-4.2c-2.7,0.4-4.6,3-4.2,5.7l7.6,48.5l-21-21c-2-2-5.1-2-7.1,0c-2,2-2,5.1,0,7.1l23.3,23.3H90.8   c-2.8,0-5,2.2-5,5s2.2,5,5,5h37.8H387h37.8c2.8,0,5-2.2,5-5S427.6,419.4,424.8,419.4z M138.6,419.4v-194   c0-65.7,53.5-119.2,119.2-119.2c65.7,0,119.2,53.5,119.2,119.2v194H138.6z"/><path class="st1" d="M314.5,231.9h-51.7v-53.5c0-2.8-2.2-5-5-5c-2.8,0-5,2.2-5,5v53.5h-51.7c-2.8,0-5,2.2-5,5s2.2,5,5,5h51.7v105.5   c0,2.8,2.2,5,5,5c2.8,0,5-2.2,5-5V241.9h51.7c2.8,0,5-2.2,5-5S317.3,231.9,314.5,231.9z"/></g></svg>